<svg xmlns="http://www.w3.org/2000/svg" width="300" height="366" viewBox="0 0 300 366" role="img" aria-label="微信收款码占位图">
  <rect width="300" height="366" fill="#ffffff"/>
  <rect x="12" y="12" width="276" height="276" rx="12" fill="#f6faf7" stroke="#07C160" stroke-width="2" stroke-dasharray="9 6"/>
  <g fill="none" stroke="#07C160" stroke-width="6">
    <rect x="34" y="34" width="44" height="44" rx="7"/>
    <rect x="222" y="34" width="44" height="44" rx="7"/>
    <rect x="34" y="222" width="44" height="44" rx="7"/>
  </g>
  <g fill="#07C160">
    <rect x="47" y="47" width="18" height="18" rx="3"/>
    <rect x="235" y="47" width="18" height="18" rx="3"/>
    <rect x="47" y="235" width="18" height="18" rx="3"/>
  </g>
  <rect x="98" y="98" width="104" height="104" rx="10" fill="#e2f4ea"/>
  <path d="M150 120c-16.6 0-30 12.5-30 28 0 8.3 3.7 15.6 9.5 20.5l-3.6 14.5 15.4-7.9c2.8.6 5.6.9 8.7.9 16.6 0 30-12.5 30-28s-13.4-28-30-28z" fill="#07C160"/>
  <g fill="#07C160">
    <circle cx="139" cy="138" r="3.6" fill="#ffffff"/>
    <circle cx="161" cy="138" r="3.6" fill="#ffffff"/>
  </g>
  <text x="150" y="252" text-anchor="middle" font-family="-apple-system,BlinkMacSystemFont,'PingFang SC','Microsoft YaHei',sans-serif" font-size="17" font-weight="600" fill="#07C160">微信收款码</text>
  <text x="150" y="276" text-anchor="middle" font-family="-apple-system,BlinkMacSystemFont,'PingFang SC','Microsoft YaHei',sans-serif" font-size="12" fill="#9aa3a0">这是一张示例占位图</text>
  <text x="150" y="316" text-anchor="middle" font-family="-apple-system,BlinkMacSystemFont,'PingFang SC','Microsoft YaHei',sans-serif" font-size="14" font-weight="600" fill="#333333">请替换为你的微信收款码</text>
  <text x="150" y="338" text-anchor="middle" font-family="-apple-system,BlinkMacSystemFont,'PingFang SC','Microsoft YaHei',sans-serif" font-size="11" fill="#888888">微信 → 我 → 服务 → 收付款 → 二维码收款</text>
  <text x="150" y="356" text-anchor="middle" font-family="-apple-system,BlinkMacSystemFont,'PingFang SC','Microsoft YaHei',sans-serif" font-size="11" fill="#888888">保存后覆盖本文件即可</text>
</svg>
